<?xml version="1.0" encoding="UTF-8"?>
<svg width="237px" height="72px" viewBox="0 0 237 72" version="1.1" xmlns="http://www.w3.org/2000/svg" xmlns:xlink="http://www.w3.org/1999/xlink">
    <!-- Generator: Sketch 41.2 (35397) - http://www.bohemiancoding.com/sketch -->
    <title>Atomic Object Color</title>
    <desc>Created with Sketch.</desc>
    <defs></defs>
    <g id="Page-1" stroke="none" stroke-width="1" fill="none" fill-rule="evenodd">
        <g id="Atomic-Object-Color" transform="translate(0.000000, -1.000000)">
            <path d="M74.888,30.458 L72.79,36.492 L76.914,36.492 L74.888,30.458 Z M78.755,42.154 L77.776,39.219 L71.882,39.219 L70.88,42.154 L67.501,42.154 L73.536,25.564 L76.076,25.564 L82.134,42.154 L78.755,42.154 L78.755,42.154 Z" id="Fill-1" fill="#DF4D54"></path>
            <polyline id="Fill-2" fill="#DF4D54" points="88.891 28.454 88.891 42.154 85.652 42.154 85.652 28.454 81.318 28.454 81.318 25.564 93.225 25.564 93.225 28.454 88.891 28.454"></polyline>
            <path d="M103.034,29.199 C102.568,28.663 101.846,28.314 100.961,28.314 C100.075,28.314 99.353,28.663 98.863,29.199 C98.258,29.898 98.071,30.69 98.071,33.859 C98.071,37.028 98.258,37.797 98.863,38.496 C99.353,39.032 100.075,39.405 100.961,39.405 C101.846,39.405 102.568,39.032 103.034,38.496 C103.641,37.797 103.85,37.028 103.85,33.859 C103.85,30.69 103.641,29.898 103.034,29.199 Z M105.388,40.547 C104.27,41.665 102.871,42.294 100.961,42.294 C99.05,42.294 97.629,41.665 96.511,40.547 C94.857,38.892 94.833,37.028 94.833,33.859 C94.833,30.69 94.857,28.826 96.511,27.172 C97.629,26.054 99.05,25.425 100.961,25.425 C102.871,25.425 104.27,26.054 105.388,27.172 C107.042,28.826 107.089,30.69 107.089,33.859 C107.089,37.028 107.042,38.892 105.388,40.547 L105.388,40.547 Z" id="Fill-3" fill="#DF4D54"></path>
            <polyline id="Fill-4" fill="#DF4D54" points="121.814 42.154 121.814 32.484 118.645 38.775 116.455 38.775 113.263 32.484 113.263 42.154 110.024 42.154 110.024 25.564 113.216 25.564 117.55 34.535 121.86 25.564 125.053 25.564 125.053 42.154 121.814 42.154"></polyline>
            <polygon id="Fill-5" fill="#DF4D54" points="128.92 42.154 132.159 42.154 132.159 25.564 128.92 25.564"></polygon>
            <path d="M141.596,42.294 C139.685,42.294 138.287,41.665 137.146,40.547 C135.491,38.892 135.468,37.028 135.468,33.859 C135.468,30.69 135.491,28.826 137.146,27.172 C138.287,26.054 139.685,25.425 141.596,25.425 C144.694,25.425 147.071,27.195 147.677,30.667 L144.368,30.667 C144.042,29.315 143.203,28.314 141.596,28.314 C140.71,28.314 139.987,28.641 139.522,29.176 C138.916,29.875 138.706,30.69 138.706,33.859 C138.706,37.028 138.916,37.844 139.522,38.543 C139.987,39.079 140.71,39.405 141.596,39.405 C143.203,39.405 144.066,38.403 144.392,37.052 L147.677,37.052 C147.071,40.523 144.671,42.294 141.596,42.294" id="Fill-6" fill="#DF4D54"></path>
            <path d="M163.521,29.199 C163.055,28.663 162.332,28.314 161.447,28.314 C160.562,28.314 159.839,28.663 159.35,29.199 C158.744,29.898 158.558,30.69 158.558,33.859 C158.558,37.028 158.744,37.797 159.35,38.496 C159.839,39.032 160.562,39.405 161.447,39.405 C162.332,39.405 163.055,39.032 163.521,38.496 C164.127,37.797 164.336,37.028 164.336,33.859 C164.336,30.69 164.127,29.898 163.521,29.199 Z M165.874,40.547 C164.756,41.665 163.358,42.294 161.447,42.294 C159.536,42.294 158.115,41.665 156.997,40.547 C155.343,38.892 155.319,37.028 155.319,33.859 C155.319,30.69 155.343,28.826 156.997,27.172 C158.115,26.054 159.536,25.425 161.447,25.425 C163.358,25.425 164.756,26.054 165.874,27.172 C167.528,28.826 167.575,30.69 167.575,33.859 C167.575,37.028 167.528,38.892 165.874,40.547 L165.874,40.547 Z" id="Fill-7" fill="#DF4D54"></path>
            <path d="M177.15,35.187 L173.773,35.187 L173.773,39.265 L177.15,39.265 C178.619,39.265 179.317,38.333 179.317,37.215 C179.317,36.097 178.619,35.187 177.15,35.187 Z M176.941,28.454 L173.773,28.454 L173.773,32.275 L176.941,32.275 C178.316,32.275 179.085,31.506 179.085,30.364 C179.085,29.222 178.316,28.454 176.941,28.454 Z M177.477,42.154 L170.533,42.154 L170.533,25.564 L177.197,25.564 C180.437,25.564 182.323,27.382 182.323,30.225 C182.323,32.065 181.111,33.254 180.274,33.649 C181.275,34.116 182.557,35.164 182.557,37.378 C182.557,40.476 180.437,42.154 177.477,42.154 L177.477,42.154 Z" id="Fill-8" fill="#DF4D54"></path>
            <path d="M187.799,42.294 C186.005,42.294 184.77,41.828 183.535,40.593 L185.679,38.473 C186.214,39.009 186.727,39.405 187.799,39.405 C189.383,39.405 190.408,38.473 190.408,36.562 L190.408,25.564 L193.648,25.564 L193.648,36.702 C193.648,40.36 190.874,42.294 187.799,42.294" id="Fill-9" fill="#DF4D54"></path>
            <polyline id="Fill-10" fill="#DF4D54" points="197.305 42.154 197.305 25.564 208.233 25.564 208.233 28.454 200.544 28.454 200.544 32.345 207.091 32.345 207.091 35.234 200.544 35.234 200.544 39.265 208.233 39.265 208.233 42.154 197.305 42.154"></polyline>
            <path d="M216.808,42.294 C214.897,42.294 213.499,41.665 212.358,40.547 C210.703,38.892 210.68,37.028 210.68,33.859 C210.68,30.69 210.703,28.826 212.358,27.172 C213.499,26.054 214.897,25.425 216.808,25.425 C219.906,25.425 222.283,27.195 222.889,30.667 L219.58,30.667 C219.254,29.315 218.415,28.314 216.808,28.314 C215.922,28.314 215.199,28.641 214.733,29.176 C214.128,29.875 213.918,30.69 213.918,33.859 C213.918,37.028 214.128,37.844 214.733,38.543 C215.199,39.079 215.922,39.405 216.808,39.405 C218.415,39.405 219.277,38.403 219.604,37.052 L222.889,37.052 C222.283,40.523 219.883,42.294 216.808,42.294" id="Fill-11" fill="#DF4D54"></path>
            <polyline id="Fill-12" fill="#DF4D54" points="231.79 28.454 231.79 42.154 228.552 42.154 228.552 28.454 224.218 28.454 224.218 25.564 236.124 25.564 236.124 28.454 231.79 28.454"></polyline>
            <path d="M0.966,22.54 C0.047,24.799 3.613,28.306 11.592,32.957 L12.348,31.655 C1.595,25.376 2.328,23.201 2.365,23.108 C2.689,22.315 5.956,21.477 16.003,24 L16.371,22.529 C7.095,20.204 1.922,20.211 0.966,22.54" id="Fill-13" fill="#38B5AD"></path>
            <path d="M29.193,0.975 C27.906,1.128 26.949,2.499 26.277,5.175 C25.649,7.655 25.286,11.375 25.159,15.936 L26.651,15.825 C27.006,2.892 29.276,2.485 29.369,2.476 C30.211,2.374 32.49,4.829 35.154,14.842 L36.684,14.692 C34.226,5.462 31.656,0.686 29.193,0.975" id="Fill-14" fill="#38B5AD"></path>
            <path d="M54.553,40.88 C65.916,47.851 65.089,50.105 65.052,50.194 C64.691,51.016 61.272,51.777 50.883,48.812 L50.47,50.264 C57.04,52.127 65.138,53.747 66.436,50.807 C67.439,48.508 63.715,44.732 55.347,39.597 L54.553,40.88" id="Fill-15" fill="#38B5AD"></path>
            <path d="M39.852,57.017 C39.701,70.341 37.35,70.789 37.254,70.797 C36.368,70.916 33.962,68.367 31.16,57.933 L29.707,58.323 C31.468,64.92 34.251,72.699 37.441,72.295 C39.932,71.981 41.249,66.845 41.362,57.035 L39.852,57.017" id="Fill-16" fill="#38B5AD"></path>
            <path d="M32.198,50.69 C28.455,50.42 25.048,48.705 22.596,45.872 C20.133,43.03 18.932,39.412 19.206,35.669 C19.747,27.935 26.471,22.097 34.198,22.637 C41.918,23.177 47.764,29.894 47.223,37.621 L47.217,37.705 C46.663,45.416 39.921,51.249 32.198,50.69 M10.951,35.085 C10.524,41.013 12.437,46.777 16.333,51.284 C20.233,55.791 25.658,58.517 31.606,58.941 C43.878,59.83 54.587,50.571 55.476,38.298 L55.483,38.199 C56.341,25.924 47.054,15.236 34.776,14.378 C22.501,13.519 11.809,22.81 10.951,35.085" id="Fill-17" fill="#44413D"></path>
            <path d="M35.762,36.535 C35.762,35.203 34.682,34.122 33.35,34.122 C32.017,34.122 30.936,35.203 30.936,36.535 C30.936,37.868 32.017,38.948 33.35,38.948 C34.682,38.948 35.762,37.868 35.762,36.535" id="Fill-18" fill="#DF4D54"></path>
            <path d="M19.688,40.524 C22.827,37.838 26.454,34.946 30.568,31.922 C34.241,29.223 37.699,26.861 40.89,24.823 C40.868,24.835 40.837,24.852 40.837,24.852 C40.616,24.712 39.815,24.229 39.358,24.016 C36.26,26.018 33.004,28.261 29.672,30.713 C25.921,33.471 22.44,36.217 19.332,38.847 C19.391,39.227 19.511,39.904 19.688,40.524" id="Fill-19" fill="#DF4D54"></path>
            <path d="M62.605,14.94 C62.279,14.489 61.772,14.208 61.095,14.103 C58.702,13.743 53.655,15.688 47.216,19.268 C47.224,19.274 47.814,19.725 48.43,20.323 C48.429,20.324 48.425,20.328 48.424,20.329 C54.629,16.925 59.059,15.324 60.863,15.598 C61.046,15.623 61.288,15.685 61.393,15.831 C61.769,16.346 61.078,18.809 55.698,24.399 C51.061,29.22 44.362,34.918 36.837,40.452 C21.507,51.716 9.784,57.272 6.542,56.773 C6.359,56.748 6.118,56.681 6.008,56.547 C5.906,56.406 5.92,56.156 5.944,55.968 C6.204,54.284 8.717,50.894 13.202,46.457 C13.183,46.472 13.157,46.493 13.157,46.493 C13.157,46.493 12.724,45.598 12.5,45.021 C7.756,49.658 4.798,53.504 4.46,55.743 C4.354,56.428 4.465,56.996 4.796,57.435 C5.122,57.885 5.629,58.167 6.31,58.268 C10.619,58.919 23.538,52.095 37.729,41.665 C49.345,33.127 65.563,18.958 62.605,14.94" id="Fill-20" fill="#DF4D54"></path>
        </g>
    </g>
</svg>